<svg width="27" height="24" viewBox="0 0 27 24" fill="none" xmlns="http://www.w3.org/2000/svg">
<path d="M21.3587 20H5.62072C5.32258 20 5.03665 20.1054 4.82583 20.2929C4.61502 20.4804 4.49658 20.7348 4.49658 21C4.49658 21.2652 4.61502 21.5196 4.82583 21.7071C5.03665 21.8946 5.32258 22 5.62072 22H21.3587C21.6568 22 21.9427 21.8946 22.1535 21.7071C22.3644 21.5196 22.4828 21.2652 22.4828 21C22.4828 20.7348 22.3644 20.4804 22.1535 20.2929C21.9427 20.1054 21.6568 20 21.3587 20ZM12.6915 17.71C12.7985 17.801 12.9245 17.8724 13.0625 17.92C13.1971 17.9729 13.3426 18.0002 13.4897 18.0002C13.6368 18.0002 13.7823 17.9729 13.9169 17.92C14.0548 17.8724 14.1809 17.801 14.2878 17.71L18.7844 13.71C18.9961 13.5217 19.115 13.2663 19.115 13C19.115 12.7337 18.9961 12.4783 18.7844 12.29C18.5727 12.1017 18.2856 11.9959 17.9862 11.9959C17.6869 11.9959 17.3998 12.1017 17.1881 12.29L14.6138 14.59V3C14.6138 2.73478 14.4954 2.48043 14.2846 2.29289C14.0738 2.10536 13.7878 2 13.4897 2C13.1915 2 12.9056 2.10536 12.6948 2.29289C12.484 2.48043 12.3655 2.73478 12.3655 3V14.59L9.79127 12.29C9.68646 12.1968 9.56203 12.1228 9.42508 12.0723C9.28814 12.0219 9.14136 11.9959 8.99313 11.9959C8.84491 11.9959 8.69813 12.0219 8.56118 12.0723C8.42424 12.1228 8.29981 12.1968 8.195 12.29C8.09018 12.3832 8.00704 12.4939 7.95032 12.6158C7.89359 12.7376 7.8644 12.8681 7.8644 13C7.8644 13.1319 7.89359 13.2624 7.95032 13.3842C8.00704 13.5061 8.09018 13.6168 8.195 13.71L12.6915 17.71Z" fill="#3D3D3D"/>
</svg>
